# xmcd
#
# Track frame offsets:
#	187
#	42645
#	75912
#	84700
#	116947
#	142365
#	164460
#	186680
#	206157
#
# Disc length: 3163 seconds
#
# Revision: 1
# Processed by: cddbd v1.5.1PL0 Copyright (c) Steve Scherf et al.
# Submitted via: CDex 1.50Beta5
#
DISCID=8e0c5909
DTITLE=Johnny - FREE SPIRIT 1994
DYEAR=1995
DGENRE=Rock
TTITLE0=CROSSROADS
TTITLE1=JAM去年の雨
TTITLE2=HEAR ME IN HEAVEN
TTITLE3=BABY YOU’RE MINE
TTITLE4=SONG IN MY HEART
TTITLE5=SUNSHINE OF YOUR LOVE
TTITLE6=MANIC DEPRESSION
TTITLE7=PINK CLOUD
TTITLE8=NATURAL VIBRATION
EXTD=
EXTT0=
EXTT1=
EXTT2=
EXTT3=
EXTT4=
EXTT5=
EXTT6=
EXTT7=
EXTT8=
PLAYORDER=
